# Blender v2.79 (sub 0) OBJ File: 'WorldGreyBox21.blend'
# www.blender.org
mtllib Crystal_01_LP.mtl
o Cylinder.078_Cylinder.079
v 15.573844 38.480797 -0.827762
v 18.009403 49.100559 -0.827762
v 16.131025 38.353012 -0.497722
v 18.566584 48.972775 -0.497722
v 16.131025 38.353012 0.162358
v 18.566582 48.972775 0.162358
v 15.573844 38.480797 0.492397
v 18.009403 49.100559 0.492397
v 15.016664 38.608582 0.162358
v 17.452223 49.228348 0.162358
v 15.016664 38.608582 -0.497722
v 17.452223 49.228348 -0.497722
v 18.041601 49.240955 -0.700534
v 18.491386 49.137798 -0.434108
v 18.491386 49.137798 0.098744
v 18.041601 49.240955 0.365170
v 17.591814 49.344109 0.098744
v 17.591814 49.344109 -0.434108
v 17.946091 48.824505 -0.827762
v 18.503271 48.696720 -0.497722
v 18.503271 48.696720 0.162358
v 17.946091 48.824505 0.492397
v 17.388910 48.952290 0.162358
v 17.388910 48.952290 -0.497722
v 15.314281 36.759964 -0.416390
v 17.728861 47.288261 -0.416390
v 15.771677 36.655067 -0.148927
v 18.186256 47.183361 -0.148927
v 15.771677 36.655067 0.386000
v 18.186256 47.183361 0.386000
v 15.314281 36.759964 0.653464
v 17.728861 47.288261 0.653464
v 14.856885 36.864868 0.386000
v 17.271465 47.393162 0.386000
v 14.856885 36.864868 -0.148927
v 17.271465 47.393162 -0.148927
v 17.760782 47.427444 -0.313285
v 18.130016 47.342766 -0.097374
v 18.130016 47.342766 0.334448
v 17.760782 47.427444 0.550359
v 17.391548 47.512127 0.334448
v 17.391548 47.512127 -0.097374
v 17.666096 47.014584 -0.416390
v 18.123491 46.909683 -0.148927
v 18.123491 46.909683 0.386000
v 17.666096 47.014584 0.653464
v 17.208700 47.119484 0.386000
v 17.208700 47.119484 -0.148927
v 14.115029 35.260941 -1.414076
v 16.529610 45.789238 -1.414076
v 14.572426 35.156040 -1.146613
v 16.987005 45.684338 -1.146613
v 14.572426 35.156040 -0.611686
v 16.987005 45.684338 -0.611686
v 14.115029 35.260941 -0.344223
v 16.529610 45.789238 -0.344223
v 13.657634 35.365841 -0.611686
v 16.072214 45.894135 -0.611686
v 13.657634 35.365841 -1.146613
v 16.072214 45.894135 -1.146613
v 16.561531 45.928421 -1.310971
v 16.930765 45.843739 -1.095060
v 16.930765 45.843739 -0.663239
v 16.561531 45.928421 -0.447328
v 16.192295 46.013100 -0.663239
v 16.192295 46.013100 -1.095060
v 16.466845 45.515560 -1.414076
v 16.924240 45.410660 -1.146613
v 16.924240 45.410660 -0.611686
v 16.466845 45.515560 -0.344223
v 16.009449 45.620461 -0.611686
v 16.009449 45.620461 -1.146613
v 14.675726 35.055229 0.410789
v 15.941708 40.575294 0.410789
v 14.855616 35.013973 0.513686
v 16.121597 40.534035 0.513686
v 14.855616 35.013973 0.719480
v 16.121597 40.534035 0.719480
v 14.675726 35.055229 0.822377
v 15.941708 40.575294 0.822377
v 14.495835 35.096489 0.719480
v 15.761817 40.616550 0.719480
v 14.495835 35.096489 0.513686
v 15.761817 40.616550 0.513686
v 15.958444 40.648270 0.450455
v 16.103661 40.614964 0.533519
v 16.103661 40.614964 0.699647
v 15.958444 40.648270 0.782711
v 15.813227 40.681572 0.699647
v 15.813227 40.681572 0.533519
v 15.908799 40.431801 0.410789
v 16.088690 40.390545 0.513686
v 16.088690 40.390545 0.719480
v 15.908799 40.431801 0.822377
v 15.728909 40.473057 0.719480
v 15.728909 40.473057 0.513686
v 14.977955 32.095238 -0.885869
v 17.363747 42.498009 -0.885869
v 15.316966 32.017490 -0.691956
v 17.702757 42.420258 -0.691956
v 15.316965 32.017490 -0.304129
v 17.702757 42.420258 -0.304129
v 14.977955 32.095238 -0.110216
v 17.363747 42.498009 -0.110216
v 14.638945 32.172989 -0.304129
v 17.024736 42.575756 -0.304129
v 14.638945 32.172989 -0.691956
v 17.024736 42.575756 -0.691956
v 17.395287 42.635532 -0.811117
v 17.668955 42.572769 -0.654580
v 17.668955 42.572769 -0.341505
v 17.395287 42.635532 -0.184968
v 17.121618 42.698296 -0.341505
v 17.121618 42.698296 -0.654580
v 17.301729 42.227592 -0.885869
v 17.640739 42.149845 -0.691956
v 17.640739 42.149845 -0.304129
v 17.301729 42.227592 -0.110216
v 16.962719 42.305344 -0.304129
v 16.962719 42.305344 -0.691956
v 14.379309 34.864674 0.410789
v 15.645290 40.384735 0.410789
v 14.559199 34.823418 0.513686
v 15.825181 40.343479 0.513686
v 14.559199 34.823418 0.719480
v 15.825181 40.343479 0.719480
v 14.379309 34.864674 0.822377
v 15.645290 40.384735 0.822377
v 14.199418 34.905930 0.719480
v 15.465400 40.425995 0.719480
v 14.199418 34.905930 0.513686
v 15.465400 40.425995 0.513686
v 15.662027 40.457710 0.450455
v 15.807244 40.424408 0.533519
v 15.807244 40.424408 0.699647
v 15.662027 40.457710 0.782711
v 15.516809 40.491016 0.699647
v 15.516809 40.491016 0.533519
v 15.612382 40.241245 0.410789
v 15.792273 40.199989 0.513686
v 15.792273 40.199989 0.719480
v 15.612382 40.241245 0.822377
v 15.432491 40.282501 0.719480
v 15.432491 40.282501 0.513686
v 14.252274 35.499859 0.072027
v 15.518255 41.019920 0.072027
v 14.432164 35.458603 0.174924
v 15.698146 40.978664 0.174924
v 14.432164 35.458603 0.380718
v 15.698146 40.978664 0.380718
v 14.252274 35.499859 0.483615
v 15.518255 41.019920 0.483615
v 14.072383 35.541115 0.380718
v 15.338365 41.061176 0.380718
v 14.072383 35.541115 0.174924
v 15.338365 41.061176 0.174924
v 15.534991 41.092896 0.111693
v 15.680208 41.059589 0.194757
v 15.680208 41.059589 0.360885
v 15.534991 41.092896 0.443949
v 15.389774 41.126198 0.360885
v 15.389774 41.126198 0.194757
v 15.485347 40.876427 0.072027
v 15.665237 40.835171 0.174924
v 15.665237 40.835171 0.380718
v 15.485347 40.876427 0.483615
v 15.305456 40.917686 0.380718
v 15.305456 40.917686 0.174924
v 15.123624 34.864677 -1.776587
v 16.169180 40.384739 -1.062777
v 15.214175 34.823418 -1.590176
v 16.259731 40.343483 -0.876367
v 15.098141 34.823418 -1.420214
v 16.143696 40.343483 -0.706405
v 14.891555 34.864677 -1.436663
v 15.937110 40.384739 -0.722853
v 14.801003 34.905933 -1.623073
v 15.846559 40.425995 -0.909263
v 14.917038 34.905933 -1.793035
v 15.962593 40.425995 -1.079225
v 16.160637 40.457714 -1.020581
v 16.233734 40.424408 -0.870100
v 16.140064 40.424408 -0.732898
v 15.973297 40.457714 -0.746176
v 15.900200 40.491016 -0.896656
v 15.993869 40.491016 -1.033859
v 16.142000 40.241249 -1.081332
v 16.232552 40.199989 -0.894922
v 16.116518 40.199989 -0.724960
v 15.909931 40.241249 -0.741408
v 15.819380 40.282501 -0.927818
v 15.935414 40.282505 -1.097780
v 15.368429 35.055229 -1.609455
v 16.413984 40.575291 -0.895645
v 15.458982 35.013973 -1.423045
v 16.504536 40.534035 -0.709235
v 15.342947 35.013973 -1.253083
v 16.388502 40.534035 -0.539273
v 15.136360 35.055229 -1.269531
v 16.181915 40.575291 -0.555721
v 15.045809 35.096489 -1.455941
v 16.091364 40.616547 -0.742132
v 15.161843 35.096489 -1.625903
v 16.207399 40.616547 -0.912094
v 16.405441 40.648266 -0.853449
v 16.478540 40.614964 -0.702969
v 16.384871 40.614964 -0.565766
v 16.218103 40.648266 -0.579044
v 16.145004 40.681572 -0.729525
v 16.238674 40.681572 -0.866727
v 16.386806 40.431801 -0.914201
v 16.477358 40.390545 -0.727790
v 16.361324 40.390545 -0.557828
v 16.154737 40.431801 -0.574276
v 16.064186 40.473057 -0.760687
v 16.180220 40.473057 -0.930649
vt 0.275394 0.973902
vt 0.275394 0.999891
vt 0.183633 0.999890
vt 0.183633 0.973902
vt 0.091872 0.999891
vt 0.091872 0.973902
vt 0.000111 0.999891
vt 0.000111 0.973902
vt 0.550678 0.973902
vt 0.550678 0.999891
vt 0.458916 0.999891
vt 0.458916 0.973902
vt 0.550897 0.048541
vt 0.634498 0.000109
vt 0.634906 0.024051
vt 0.571901 0.059994
vt 0.367155 0.999891
vt 0.367155 0.973902
vt 0.709831 0.241152
vt 0.709831 0.332913
vt 0.630364 0.378794
vt 0.550896 0.332913
vt 0.550896 0.241152
vt 0.630364 0.195271
vt 0.697030 0.061927
vt 0.696558 0.135168
vt 0.633554 0.171111
vt 0.571430 0.133235
vt 0.717562 0.146620
vt 0.633962 0.195053
vt 0.717564 0.049715
vt 0.550896 0.145447
vt 0.367155 0.000109
vt 0.275393 0.000109
vt 0.458916 0.000109
vt 0.550678 0.000109
vt 0.091871 0.000109
vt 0.000109 0.000109
vt 0.183632 0.000109
vt 0.275394 0.973902
vt 0.275394 0.999891
vt 0.183633 0.999890
vt 0.183633 0.973902
vt 0.091872 0.999891
vt 0.091872 0.973902
vt 0.000111 0.999891
vt 0.000111 0.973902
vt 0.550678 0.973902
vt 0.550678 0.999891
vt 0.458916 0.999891
vt 0.458916 0.973902
vt 0.550897 0.048541
vt 0.634498 0.000109
vt 0.634906 0.024051
vt 0.571901 0.059994
vt 0.367155 0.999891
vt 0.367155 0.973902
vt 0.709831 0.241152
vt 0.709831 0.332913
vt 0.630364 0.378794
vt 0.550896 0.332913
vt 0.550896 0.241152
vt 0.630364 0.195271
vt 0.697030 0.061927
vt 0.696558 0.135168
vt 0.633554 0.171111
vt 0.571430 0.133235
vt 0.717562 0.146620
vt 0.633962 0.195053
vt 0.717564 0.049715
vt 0.550896 0.145447
vt 0.367155 0.000109
vt 0.275393 0.000109
vt 0.458916 0.000109
vt 0.550678 0.000109
vt 0.091871 0.000109
vt 0.000109 0.000109
vt 0.183632 0.000109
vt 0.275394 0.973902
vt 0.275394 0.999891
vt 0.183633 0.999890
vt 0.183633 0.973902
vt 0.091872 0.999891
vt 0.091872 0.973902
vt 0.000111 0.999891
vt 0.000111 0.973902
vt 0.550678 0.973902
vt 0.550678 0.999891
vt 0.458916 0.999891
vt 0.458916 0.973902
vt 0.550897 0.048541
vt 0.634498 0.000109
vt 0.634906 0.024051
vt 0.571901 0.059994
vt 0.367155 0.999891
vt 0.367155 0.973902
vt 0.709831 0.241152
vt 0.709831 0.332913
vt 0.630364 0.378794
vt 0.550896 0.332913
vt 0.550896 0.241152
vt 0.630364 0.195271
vt 0.697030 0.061927
vt 0.696558 0.135168
vt 0.633554 0.171111
vt 0.571430 0.133235
vt 0.717562 0.146620
vt 0.633962 0.195053
vt 0.717564 0.049715
vt 0.550896 0.145447
vt 0.367155 0.000109
vt 0.275393 0.000109
vt 0.458916 0.000109
vt 0.550678 0.000109
vt 0.091871 0.000109
vt 0.000109 0.000109
vt 0.183632 0.000109
vt 0.275394 0.973902
vt 0.275394 0.999891
vt 0.183633 0.999890
vt 0.183633 0.973902
vt 0.091872 0.999891
vt 0.091872 0.973902
vt 0.000111 0.999891
vt 0.000111 0.973902
vt 0.550678 0.973902
vt 0.550678 0.999891
vt 0.458916 0.999891
vt 0.458916 0.973902
vt 0.550897 0.048541
vt 0.634498 0.000109
vt 0.634906 0.024051
vt 0.571901 0.059994
vt 0.367155 0.999891
vt 0.367155 0.973902
vt 0.709831 0.241152
vt 0.709831 0.332913
vt 0.630364 0.378794
vt 0.550896 0.332913
vt 0.550896 0.241152
vt 0.630364 0.195271
vt 0.697030 0.061927
vt 0.696558 0.135168
vt 0.633554 0.171111
vt 0.571430 0.133235
vt 0.717562 0.146620
vt 0.633962 0.195053
vt 0.717564 0.049715
vt 0.550896 0.145447
vt 0.367155 0.000109
vt 0.275393 0.000109
vt 0.458916 0.000109
vt 0.550678 0.000109
vt 0.091871 0.000109
vt 0.000109 0.000109
vt 0.183632 0.000109
vt 0.275394 0.973902
vt 0.275394 0.999891
vt 0.183633 0.999890
vt 0.183633 0.973902
vt 0.091872 0.999891
vt 0.091872 0.973902
vt 0.000111 0.999891
vt 0.000111 0.973902
vt 0.550678 0.973902
vt 0.550678 0.999891
vt 0.458916 0.999891
vt 0.458916 0.973902
vt 0.550897 0.048541
vt 0.634498 0.000109
vt 0.634906 0.024051
vt 0.571901 0.059994
vt 0.367155 0.999891
vt 0.367155 0.973902
vt 0.709831 0.241152
vt 0.709831 0.332913
vt 0.630364 0.378794
vt 0.550896 0.332913
vt 0.550896 0.241152
vt 0.630364 0.195271
vt 0.697030 0.061927
vt 0.696558 0.135168
vt 0.633554 0.171111
vt 0.571430 0.133235
vt 0.717562 0.146620
vt 0.633962 0.195053
vt 0.717564 0.049715
vt 0.550896 0.145447
vt 0.367155 0.000109
vt 0.275393 0.000109
vt 0.458916 0.000109
vt 0.550678 0.000109
vt 0.091871 0.000109
vt 0.000109 0.000109
vt 0.183632 0.000109
vt 0.275394 0.973902
vt 0.275394 0.999891
vt 0.183633 0.999890
vt 0.183633 0.973902
vt 0.091872 0.999891
vt 0.091872 0.973902
vt 0.000111 0.999891
vt 0.000111 0.973902
vt 0.550678 0.973902
vt 0.550678 0.999891
vt 0.458916 0.999891
vt 0.458916 0.973902
vt 0.550897 0.048541
vt 0.634498 0.000109
vt 0.634906 0.024051
vt 0.571901 0.059994
vt 0.367155 0.999891
vt 0.367155 0.973902
vt 0.709831 0.241152
vt 0.709831 0.332913
vt 0.630364 0.378794
vt 0.550896 0.332913
vt 0.550896 0.241152
vt 0.630364 0.195271
vt 0.697030 0.061927
vt 0.696558 0.135168
vt 0.633554 0.171111
vt 0.571430 0.133235
vt 0.717562 0.146620
vt 0.633962 0.195053
vt 0.717564 0.049715
vt 0.550896 0.145447
vt 0.367155 0.000109
vt 0.275393 0.000109
vt 0.458916 0.000109
vt 0.550678 0.000109
vt 0.091871 0.000109
vt 0.000109 0.000109
vt 0.183632 0.000109
vt 0.275394 0.973902
vt 0.275394 0.999891
vt 0.183633 0.999890
vt 0.183633 0.973902
vt 0.091872 0.999891
vt 0.091872 0.973902
vt 0.000111 0.999891
vt 0.000111 0.973902
vt 0.550678 0.973902
vt 0.550678 0.999891
vt 0.458916 0.999891
vt 0.458916 0.973902
vt 0.550897 0.048541
vt 0.634498 0.000109
vt 0.634906 0.024051
vt 0.571901 0.059994
vt 0.367155 0.999891
vt 0.367155 0.973902
vt 0.709831 0.241152
vt 0.709831 0.332913
vt 0.630364 0.378794
vt 0.550896 0.332913
vt 0.550896 0.241152
vt 0.630364 0.195271
vt 0.697030 0.061927
vt 0.696558 0.135168
vt 0.633554 0.171111
vt 0.571430 0.133235
vt 0.717562 0.146620
vt 0.633962 0.195053
vt 0.717564 0.049715
vt 0.550896 0.145447
vt 0.367155 0.000109
vt 0.275393 0.000109
vt 0.458916 0.000109
vt 0.550678 0.000109
vt 0.091871 0.000109
vt 0.000109 0.000109
vt 0.183632 0.000109
vt 0.275394 0.973902
vt 0.275394 0.999891
vt 0.183633 0.999890
vt 0.183633 0.973902
vt 0.091872 0.999891
vt 0.091872 0.973902
vt 0.000111 0.999891
vt 0.000111 0.973902
vt 0.550678 0.973902
vt 0.550678 0.999891
vt 0.458916 0.999891
vt 0.458916 0.973902
vt 0.550897 0.048541
vt 0.634498 0.000109
vt 0.634906 0.024051
vt 0.571901 0.059994
vt 0.367155 0.999891
vt 0.367155 0.973902
vt 0.709831 0.241152
vt 0.709831 0.332913
vt 0.630364 0.378794
vt 0.550896 0.332913
vt 0.550896 0.241152
vt 0.630364 0.195271
vt 0.697030 0.061927
vt 0.696558 0.135168
vt 0.633554 0.171111
vt 0.571430 0.133235
vt 0.717562 0.146620
vt 0.633962 0.195053
vt 0.717564 0.049715
vt 0.550896 0.145447
vt 0.367155 0.000109
vt 0.275393 0.000109
vt 0.458916 0.000109
vt 0.550678 0.000109
vt 0.091871 0.000109
vt 0.000109 0.000109
vt 0.183632 0.000109
vt 0.275394 0.973902
vt 0.275394 0.999891
vt 0.183633 0.999890
vt 0.183633 0.973902
vt 0.091872 0.999891
vt 0.091872 0.973902
vt 0.000111 0.999891
vt 0.000111 0.973902
vt 0.550678 0.973902
vt 0.550678 0.999891
vt 0.458916 0.999891
vt 0.458916 0.973902
vt 0.550897 0.048541
vt 0.634498 0.000109
vt 0.634906 0.024051
vt 0.571901 0.059994
vt 0.367155 0.999891
vt 0.367155 0.973902
vt 0.709831 0.241152
vt 0.709831 0.332913
vt 0.630364 0.378794
vt 0.550896 0.332913
vt 0.550896 0.241152
vt 0.630364 0.195271
vt 0.697030 0.061927
vt 0.696558 0.135168
vt 0.633554 0.171111
vt 0.571430 0.133235
vt 0.717562 0.146620
vt 0.633962 0.195053
vt 0.717564 0.049715
vt 0.550896 0.145447
vt 0.367155 0.000109
vt 0.275393 0.000109
vt 0.458916 0.000109
vt 0.550678 0.000109
vt 0.091871 0.000109
vt 0.000109 0.000109
vt 0.183632 0.000109
vn 0.4873 -0.1118 -0.8660
vn 0.9747 -0.2235 0.0000
vn 0.4873 -0.1118 0.8660
vn -0.4873 0.1118 0.8660
vn 0.9100 0.4146 0.0000
vn -0.9747 0.2235 0.0000
vn -0.4873 0.1118 -0.8660
vn -0.2235 -0.9747 -0.0000
vn 0.2235 0.9747 0.0000
vn -0.6383 0.7698 0.0000
vn 0.5229 0.5034 -0.6879
vn 0.5229 0.5034 0.6879
vn -0.2513 0.6810 -0.6879
vn -0.2513 0.6810 0.6879
vn 0.4826 -0.1107 -0.8688
vn 0.4826 -0.1107 0.8688
vn -0.4826 0.1107 0.8688
vn 0.9430 0.3327 0.0000
vn -0.4826 0.1107 -0.8688
vn -0.7038 0.7104 0.0000
vn 0.5276 0.4242 -0.7360
vn 0.5276 0.4242 0.7360
vn -0.2901 0.6117 -0.7360
vn -0.2901 0.6117 0.7360
vn 0.4827 -0.1107 -0.8688
vn 0.4827 -0.1107 0.8688
vn 0.5277 0.4242 -0.7360
vn 0.5277 0.4242 0.7360
vn 0.4746 -0.1088 -0.8734
vn 0.4746 -0.1088 0.8734
vn -0.4746 0.1089 0.8734
vn 0.9763 0.2164 0.0000
vn -0.4746 0.1089 -0.8734
vn -0.7844 0.6202 0.0000
vn 0.5247 0.3105 -0.7927
vn 0.5247 0.3105 0.7927
vn -0.3369 0.5081 -0.7927
vn -0.3369 0.5081 0.7927
vn 0.4746 -0.1089 0.8734
vn 0.4746 -0.1089 -0.8734
vn 0.5246 0.3106 -0.7927
vn 0.5246 0.3106 0.7927
vn 0.5246 0.3105 -0.7927
vn 0.5246 0.3105 0.7927
vn 0.8845 -0.1089 -0.4537
vn 0.8050 -0.2235 0.5496
vn -0.1005 -0.1089 0.9890
vn -0.8845 0.1089 0.4537
vn 0.8063 0.2164 0.5505
vn -0.8050 0.2235 -0.5496
vn 0.1005 0.1089 -0.9890
vn -0.1846 -0.9747 -0.1260
vn 0.1846 0.9747 0.1260
vn -0.6478 0.6202 -0.4423
vn 0.8802 0.3105 -0.3589
vn -0.0137 0.3105 0.9505
vn 0.1687 0.5081 -0.8446
vn -0.7252 0.5081 0.4647
vn 0.8845 -0.1088 -0.4537
vn -0.1005 -0.1088 0.9890
vn -0.8845 0.1088 0.4537
vn -0.6479 0.6202 -0.4423
vn 0.8802 0.3105 -0.3588
vn -0.0137 0.3106 0.9505
usemtl Material.006
s off
f 19/1/1 2/2/1 4/3/1 20/4/1
f 20/4/2 4/3/2 6/5/2 21/6/2
f 21/6/3 6/5/3 8/7/3 22/8/3
f 22/9/4 8/10/4 10/11/4 23/12/4
f 6/13/5 4/14/5 14/15/5 15/16/5
f 23/12/6 10/11/6 12/17/6 24/18/6
f 24/18/7 12/17/7 2/2/7 19/1/7
f 1/19/8 3/20/8 5/21/8 7/22/8 9/23/8 11/24/8
f 14/15/9 13/25/9 18/26/9 17/27/9 16/28/9 15/16/9
f 12/29/10 10/30/10 17/27/10 18/26/10
f 4/14/11 2/31/11 13/25/11 14/15/11
f 8/32/12 6/13/12 15/16/12 16/28/12
f 2/31/13 12/29/13 18/26/13 13/25/13
f 10/30/14 8/32/14 16/28/14 17/27/14
f 11/33/7 24/18/7 19/1/7 1/34/7
f 9/35/6 23/12/6 24/18/6 11/33/6
f 7/36/4 22/9/4 23/12/4 9/35/4
f 5/37/3 21/6/3 22/8/3 7/38/3
f 3/39/2 20/4/2 21/6/2 5/37/2
f 1/34/1 19/1/1 20/4/1 3/39/1
f 43/40/15 26/41/15 28/42/15 44/43/15
f 44/43/2 28/42/2 30/44/2 45/45/2
f 45/45/16 30/44/16 32/46/16 46/47/16
f 46/48/17 32/49/17 34/50/17 47/51/17
f 30/52/18 28/53/18 38/54/18 39/55/18
f 47/51/6 34/50/6 36/56/6 48/57/6
f 48/57/19 36/56/19 26/41/19 43/40/19
f 25/58/8 27/59/8 29/60/8 31/61/8 33/62/8 35/63/8
f 38/54/9 37/64/9 42/65/9 41/66/9 40/67/9 39/55/9
f 36/68/20 34/69/20 41/66/20 42/65/20
f 28/53/21 26/70/21 37/64/21 38/54/21
f 32/71/22 30/52/22 39/55/22 40/67/22
f 26/70/23 36/68/23 42/65/23 37/64/23
f 34/69/24 32/71/24 40/67/24 41/66/24
f 35/72/19 48/57/19 43/40/19 25/73/19
f 33/74/6 47/51/6 48/57/6 35/72/6
f 31/75/17 46/48/17 47/51/17 33/74/17
f 29/76/16 45/45/16 46/47/16 31/77/16
f 27/78/2 44/43/2 45/45/2 29/76/2
f 25/73/15 43/40/15 44/43/15 27/78/15
f 67/79/25 50/80/25 52/81/25 68/82/25
f 68/82/2 52/81/2 54/83/2 69/84/2
f 69/84/26 54/83/26 56/85/26 70/86/26
f 70/87/17 56/88/17 58/89/17 71/90/17
f 54/91/18 52/92/18 62/93/18 63/94/18
f 71/90/6 58/89/6 60/95/6 72/96/6
f 72/96/19 60/95/19 50/80/19 67/79/19
f 49/97/8 51/98/8 53/99/8 55/100/8 57/101/8 59/102/8
f 62/93/9 61/103/9 66/104/9 65/105/9 64/106/9 63/94/9
f 60/107/20 58/108/20 65/105/20 66/104/20
f 52/92/27 50/109/27 61/103/27 62/93/27
f 56/110/28 54/91/28 63/94/28 64/106/28
f 50/109/23 60/107/23 66/104/23 61/103/23
f 58/108/24 56/110/24 64/106/24 65/105/24
f 59/111/19 72/96/19 67/79/19 49/112/19
f 57/113/6 71/90/6 72/96/6 59/111/6
f 55/114/17 70/87/17 71/90/17 57/113/17
f 53/115/16 69/84/16 70/86/16 55/116/16
f 51/117/2 68/82/2 69/84/2 53/115/2
f 49/112/15 67/79/15 68/82/15 51/117/15
f 91/118/29 74/119/29 76/120/29 92/121/29
f 92/121/2 76/120/2 78/122/2 93/123/2
f 93/123/30 78/122/30 80/124/30 94/125/30
f 94/126/31 80/127/31 82/128/31 95/129/31
f 78/130/32 76/131/32 86/132/32 87/133/32
f 95/129/6 82/128/6 84/134/6 96/135/6
f 96/135/33 84/134/33 74/119/33 91/118/33
f 73/136/8 75/137/8 77/138/8 79/139/8 81/140/8 83/141/8
f 86/132/9 85/142/9 90/143/9 89/144/9 88/145/9 87/133/9
f 84/146/34 82/147/34 89/144/34 90/143/34
f 76/131/35 74/148/35 85/142/35 86/132/35
f 80/149/36 78/130/36 87/133/36 88/145/36
f 74/148/37 84/146/37 90/143/37 85/142/37
f 82/147/38 80/149/38 88/145/38 89/144/38
f 83/150/33 96/135/33 91/118/33 73/151/33
f 81/152/6 95/129/6 96/135/6 83/150/6
f 79/153/31 94/126/31 95/129/31 81/152/31
f 77/154/39 93/123/39 94/125/39 79/155/39
f 75/156/2 92/121/2 93/123/2 77/154/2
f 73/151/40 91/118/40 92/121/40 75/156/40
f 115/157/40 98/158/40 100/159/40 116/160/40
f 116/160/2 100/159/2 102/161/2 117/162/2
f 117/162/39 102/161/39 104/163/39 118/164/39
f 118/165/31 104/166/31 106/167/31 119/168/31
f 102/169/32 100/170/32 110/171/32 111/172/32
f 119/168/6 106/167/6 108/173/6 120/174/6
f 120/174/33 108/173/33 98/158/33 115/157/33
f 97/175/8 99/176/8 101/177/8 103/178/8 105/179/8 107/180/8
f 110/171/9 109/181/9 114/182/9 113/183/9 112/184/9 111/172/9
f 108/185/34 106/186/34 113/183/34 114/182/34
f 100/170/41 98/187/41 109/181/41 110/171/41
f 104/188/42 102/169/42 111/172/42 112/184/42
f 98/187/37 108/185/37 114/182/37 109/181/37
f 106/186/38 104/188/38 112/184/38 113/183/38
f 107/189/33 120/174/33 115/157/33 97/190/33
f 105/191/6 119/168/6 120/174/6 107/189/6
f 103/192/31 118/165/31 119/168/31 105/191/31
f 101/193/39 117/162/39 118/164/39 103/194/39
f 99/195/2 116/160/2 117/162/2 101/193/2
f 97/190/40 115/157/40 116/160/40 99/195/40
f 139/196/40 122/197/40 124/198/40 140/199/40
f 140/199/2 124/198/2 126/200/2 141/201/2
f 141/201/39 126/200/39 128/202/39 142/203/39
f 142/204/31 128/205/31 130/206/31 143/207/31
f 126/208/32 124/209/32 134/210/32 135/211/32
f 143/207/6 130/206/6 132/212/6 144/213/6
f 144/213/33 132/212/33 122/197/33 139/196/33
f 121/214/8 123/215/8 125/216/8 127/217/8 129/218/8 131/219/8
f 134/210/9 133/220/9 138/221/9 137/222/9 136/223/9 135/211/9
f 132/224/34 130/225/34 137/222/34 138/221/34
f 124/209/43 122/226/43 133/220/43 134/210/43
f 128/227/44 126/208/44 135/211/44 136/223/44
f 122/226/37 132/224/37 138/221/37 133/220/37
f 130/225/38 128/227/38 136/223/38 137/222/38
f 131/228/33 144/213/33 139/196/33 121/229/33
f 129/230/6 143/207/6 144/213/6 131/228/6
f 127/231/31 142/204/31 143/207/31 129/230/31
f 125/232/39 141/201/39 142/203/39 127/233/39
f 123/234/2 140/199/2 141/201/2 125/232/2
f 121/229/40 139/196/40 140/199/40 123/234/40
f 163/235/29 146/236/29 148/237/29 164/238/29
f 164/238/2 148/237/2 150/239/2 165/240/2
f 165/240/39 150/239/39 152/241/39 166/242/39
f 166/243/31 152/244/31 154/245/31 167/246/31
f 150/247/32 148/248/32 158/249/32 159/250/32
f 167/246/6 154/245/6 156/251/6 168/252/6
f 168/252/33 156/251/33 146/236/33 163/235/33
f 145/253/8 147/254/8 149/255/8 151/256/8 153/257/8 155/258/8
f 158/249/9 157/259/9 162/260/9 161/261/9 160/262/9 159/250/9
f 156/263/34 154/264/34 161/261/34 162/260/34
f 148/248/43 146/265/43 157/259/43 158/249/43
f 152/266/44 150/247/44 159/250/44 160/262/44
f 146/265/37 156/263/37 162/260/37 157/259/37
f 154/264/38 152/266/38 160/262/38 161/261/38
f 155/267/33 168/252/33 163/235/33 145/268/33
f 153/269/6 167/246/6 168/252/6 155/267/6
f 151/270/31 166/243/31 167/246/31 153/269/31
f 149/271/39 165/240/39 166/242/39 151/272/39
f 147/273/2 164/238/2 165/240/2 149/271/2
f 145/268/40 163/235/40 164/238/40 147/273/40
f 187/274/45 170/275/45 172/276/45 188/277/45
f 188/277/46 172/276/46 174/278/46 189/279/46
f 189/279/47 174/278/47 176/280/47 190/281/47
f 190/282/48 176/283/48 178/284/48 191/285/48
f 174/286/49 172/287/49 182/288/49 183/289/49
f 191/285/50 178/284/50 180/290/50 192/291/50
f 192/291/51 180/290/51 170/275/51 187/274/51
f 169/292/52 171/293/52 173/294/52 175/295/52 177/296/52 179/297/52
f 182/288/53 181/298/53 186/299/53 185/300/53 184/301/53 183/289/53
f 180/302/54 178/303/54 185/300/54 186/299/54
f 172/287/55 170/304/55 181/298/55 182/288/55
f 176/305/56 174/286/56 183/289/56 184/301/56
f 170/304/57 180/302/57 186/299/57 181/298/57
f 178/303/58 176/305/58 184/301/58 185/300/58
f 179/306/51 192/291/51 187/274/51 169/307/51
f 177/308/50 191/285/50 192/291/50 179/306/50
f 175/309/48 190/282/48 191/285/48 177/308/48
f 173/310/47 189/279/47 190/281/47 175/311/47
f 171/312/46 188/277/46 189/279/46 173/310/46
f 169/307/45 187/274/45 188/277/45 171/312/45
f 211/313/59 194/314/59 196/315/59 212/316/59
f 212/316/46 196/315/46 198/317/46 213/318/46
f 213/318/60 198/317/60 200/319/60 214/320/60
f 214/321/61 200/322/61 202/323/61 215/324/61
f 198/325/49 196/326/49 206/327/49 207/328/49
f 215/324/50 202/323/50 204/329/50 216/330/50
f 216/330/51 204/329/51 194/314/51 211/313/51
f 193/331/52 195/332/52 197/333/52 199/334/52 201/335/52 203/336/52
f 206/327/53 205/337/53 210/338/53 209/339/53 208/340/53 207/328/53
f 204/341/62 202/342/62 209/339/62 210/338/62
f 196/326/63 194/343/63 205/337/63 206/327/63
f 200/344/64 198/325/64 207/328/64 208/340/64
f 194/343/57 204/341/57 210/338/57 205/337/57
f 202/342/58 200/344/58 208/340/58 209/339/58
f 203/345/51 216/330/51 211/313/51 193/346/51
f 201/347/50 215/324/50 216/330/50 203/345/50
f 199/348/48 214/321/48 215/324/48 201/347/48
f 197/349/47 213/318/47 214/320/47 199/350/47
f 195/351/46 212/316/46 213/318/46 197/349/46
f 193/346/45 211/313/45 212/316/45 195/351/45
