# Blender v2.79 (sub 0) OBJ File: 'WorldGreyBox28.blend'
# www.blender.org
mtllib OG_Crystal_01.mtl
o Cylinder.006_Cylinder.007
v -13.717506 3.477628 -0.616012
v -13.717506 14.393887 -0.616012
v -13.440899 3.477628 0.235298
v -13.440899 14.393887 0.235298
v -14.165067 3.477628 0.761437
v -14.165067 14.393887 0.761437
v -14.889235 3.477628 0.235298
v -14.889235 14.393887 0.235298
v -14.612627 3.477628 -0.616012
v -14.612627 14.393887 -0.616012
v -14.165067 15.246720 0.000002
v -14.208003 3.477628 -0.747482
v -14.122130 3.477628 -0.747482
v -13.467435 3.477628 -0.271818
v -13.440899 3.477628 -0.190149
v -13.690970 3.477628 0.579492
v -13.760443 3.477628 0.629966
v -14.569691 3.477628 0.629966
v -14.639163 3.477628 0.579492
v -14.889235 3.477628 -0.190149
v -14.862699 3.477628 -0.271818
v -13.717506 14.214015 -0.616012
v -13.440899 14.214015 0.235298
v -14.165067 14.214015 0.761437
v -14.889235 14.214015 0.235298
v -14.612627 14.214015 -0.616012
v -14.605960 14.214015 -0.618178
v -13.713386 14.214015 -0.610341
v -13.445020 14.214015 0.240970
v -14.171734 14.214015 0.759270
v -14.889235 14.214015 0.228288
v -14.616747 14.214015 -0.610341
v -13.724174 14.214015 -0.618178
v -13.440899 14.214015 0.228288
v -14.158400 14.214015 0.759270
v -14.885114 14.214015 0.240970
vt 0.356682 0.980532
vt 0.356737 0.999705
vt 0.355647 0.980534
vt 0.120234 0.980162
vt 0.119244 0.999322
vt 0.119200 0.980162
vt 0.001638 0.979734
vt 0.000536 0.998861
vt 0.000605 0.979732
vt 0.476509 0.980697
vt 0.475542 0.999880
vt 0.475474 0.980698
vt 0.357717 0.980532
vt 0.792589 0.214800
vt 0.707600 0.123119
vt 0.831938 0.110132
vt 0.595785 0.179029
vt 0.685244 0.246118
vt 0.238956 0.980353
vt 0.237978 0.999520
vt 0.237922 0.980353
vt 0.118166 0.980164
vt 0.236887 0.980355
vt 0.595785 0.067209
vt 0.474439 0.980700
vt 0.685244 0.000120
vt 0.594267 0.980598
vt 0.594451 0.999799
vt 0.593231 0.980603
vt 0.170138 0.000240
vt 0.187280 0.000164
vt 0.051086 0.000330
vt 0.068224 0.000248
vt 0.527442 0.000217
vt 0.544589 0.000158
vt 0.408317 0.000185
vt 0.425466 0.000120
vt 0.784283 0.331459
vt 0.784283 0.342186
vt 0.767859 0.392733
vt 0.724862 0.423972
vt 0.714659 0.427287
vt 0.661511 0.427287
vt 0.618514 0.396048
vt 0.612208 0.387369
vt 0.595785 0.336823
vt 0.612208 0.286276
vt 0.618514 0.277597
vt 0.661511 0.246358
vt 0.714659 0.246358
vt 0.724862 0.249673
vt 0.767859 0.280912
vt 0.306361 0.000122
vt 0.289215 0.000192
vt 0.357308 0.000344
vt 0.476421 0.000359
vt 0.000120 0.000545
vt 0.595545 0.000416
vt 0.119151 0.000435
vt 0.238216 0.000369
vn -0.3090 0.0000 -0.9511
vn 1.0000 0.0000 0.0000
vn 0.3090 0.0000 0.9511
vn -0.8090 0.0000 0.5878
vn -0.8091 0.0000 -0.5877
vn 0.4765 0.5855 0.6558
vn 0.0000 0.5855 -0.8106
vn 0.3090 0.0000 -0.9511
vn 0.8090 0.0000 0.5878
vn 0.7710 0.5855 -0.2505
vn 0.8090 0.0000 -0.5878
vn -0.7710 0.5855 -0.2505
vn -1.0000 0.0000 0.0000
vn -0.4765 0.5855 0.6558
vn -0.3090 0.0000 0.9511
vn 0.0000 0.0120 -0.9999
vn 0.9510 0.0120 -0.3090
vn 0.5877 0.0120 0.8090
vn -0.5877 0.0120 0.8090
vn -0.9510 0.0120 -0.3090
vn 0.0000 -1.0000 0.0000
vn -0.8090 -0.0000 -0.5878
usemtl Material.003
s off
f 26/1/1 10/2/1 27/3/1
f 34/4/2 4/5/2 23/6/2
f 35/7/3 6/8/3 24/9/3
f 36/10/4 8/11/4 25/12/4
f 32/13/5 10/2/5 26/1/5
f 4/14/6 11/15/6 6/16/6
f 10/17/7 11/15/7 2/18/7
f 33/19/8 2/20/8 22/21/8
f 23/6/9 4/5/9 29/22/9
f 2/18/10 11/15/10 4/14/10
f 22/21/11 2/20/11 28/23/11
f 8/24/12 11/15/12 10/17/12
f 25/12/13 8/11/13 31/25/13
f 6/26/14 11/15/14 8/24/14
f 24/27/15 6/28/15 30/29/15
f 27/3/16 10/2/16 2/20/16 33/19/16
f 34/4/17 15/30/17 14/31/17 28/23/17
f 35/7/18 17/32/18 16/33/18 29/22/18
f 36/10/19 19/34/19 18/35/19 30/29/19
f 32/13/20 21/36/20 20/37/20 31/25/20
f 12/38/21 13/39/21 1/40/21 14/41/21 15/42/21 3/43/21 16/44/21 17/45/21 5/46/21 18/47/21 19/48/21 7/49/21 20/50/21 21/51/21 9/52/21
f 10/2/20 32/13/20 31/25/20 8/11/20
f 8/11/19 36/10/19 30/29/19 6/28/19
f 6/8/18 35/7/18 29/22/18 4/5/18
f 4/5/17 34/4/17 28/23/17 2/20/17
f 12/53/16 27/3/16 33/19/16 13/54/16
f 9/55/1 26/1/1 27/3/1 12/53/1
f 21/36/22 32/13/22 26/1/22 9/55/22
f 19/34/4 36/10/4 25/12/4 7/56/4
f 7/56/13 25/12/13 31/25/13 20/37/13
f 17/32/3 35/7/3 24/9/3 5/57/3
f 5/58/15 24/27/15 30/29/15 18/35/15
f 15/30/2 34/4/2 23/6/2 3/59/2
f 3/59/9 23/6/9 29/22/9 16/33/9
f 13/54/8 33/19/8 22/21/8 1/60/8
f 1/60/11 22/21/11 28/23/11 14/31/11
